<?xml version="1.0" encoding="UTF-8"?>
<svg xmlns="http://www.w3.org/2000/svg" xmlns:xlink="http://www.w3.org/1999/xlink" width="15px" height="14px" viewBox="0 0 15 14" version="1.1">
<g id="surface1">
<path style=" stroke:none;fill-rule:nonzero;fill:#e79962;fill-opacity:1;" d="M 0 3.554688 C 0.167969 3.023438 0.542969 2.667969 0.992188 2.382812 C 1.132812 2.300781 1.261719 2.195312 1.371094 2.070312 C 1.734375 1.628906 2.359375 1.621094 2.824219 2.050781 C 3.804688 2.953125 4.78125 3.855469 5.757812 4.761719 C 6.183594 5.15625 6.609375 5.554688 7.046875 5.960938 C 7.09375 5.921875 7.128906 5.886719 7.167969 5.851562 C 9.011719 4.085938 10.789062 2.253906 12.496094 0.359375 C 12.859375 -0.0429688 13.375 -0.105469 13.828125 0.21875 C 14.128906 0.433594 14.410156 0.664062 14.675781 0.917969 C 14.792969 1.03125 14.851562 1.207031 14.90625 1.367188 C 14.953125 1.503906 14.949219 1.664062 14.980469 1.808594 C 15.027344 2.03125 14.972656 2.226562 14.871094 2.417969 C 14.390625 3.328125 13.773438 4.132812 13.09375 4.898438 C 12.089844 6.027344 10.980469 7.050781 9.898438 8.101562 C 9.796875 8.199219 9.695312 8.296875 9.582031 8.40625 L 9.699219 8.53125 C 10.628906 9.527344 11.5625 10.519531 12.492188 11.515625 C 12.679688 11.714844 12.816406 11.945312 12.835938 12.226562 C 12.867188 12.621094 12.710938 12.921875 12.394531 13.148438 C 12.335938 13.195312 12.28125 13.25 12.238281 13.316406 C 12.042969 13.589844 11.789062 13.761719 11.445312 13.78125 C 11.390625 13.789062 11.335938 13.808594 11.289062 13.839844 C 10.996094 14.019531 10.707031 14.039062 10.398438 13.882812 C 9.40625 13.378906 8.542969 12.691406 7.726562 11.9375 C 7.46875 11.699219 7.21875 11.453125 6.933594 11.183594 C 6.820312 11.308594 6.71875 11.433594 6.605469 11.546875 C 6.050781 12.09375 5.472656 12.601562 4.8125 13.011719 C 4.371094 13.285156 3.90625 13.511719 3.394531 13.628906 C 3.164062 13.6875 2.921875 13.632812 2.734375 13.488281 C 2.359375 13.207031 2.011719 12.910156 1.746094 12.511719 C 1.394531 11.992188 1.445312 11.480469 1.757812 10.96875 C 2.011719 10.558594 2.34375 10.222656 2.699219 9.902344 C 3.152344 9.492188 3.613281 9.089844 4.070312 8.683594 C 4.128906 8.632812 4.1875 8.582031 4.253906 8.519531 C 3.980469 8.269531 3.714844 8.027344 3.445312 7.785156 C 2.585938 7.011719 1.730469 6.238281 0.996094 5.335938 C 0.679688 4.945312 0.410156 4.515625 0.128906 4.097656 C 0.0625 4 0.0390625 3.875 -0.00390625 3.761719 L -0.00390625 3.554688 Z M 0 3.554688 "/>
</g>
</svg>
